# xmcd CD database file
#
# Track frame offsets:
#	150
#	23377
#	39597
#	57832
#	64545
#	79487
#	95067
#	109547
#	124420
#	139862
#	157167
#	174342
#	190670
#	206962
#	221970
#	240317
#	254195
#	265675
#	280392
#	292655
#	307790
#	322892
#
# Disc length: 4528 seconds
#
# Revision: 2
# Processed by: cddbd v1.4PL0 Copyright (c) Steve Scherf et al.
# Submitted via: CDex 1.50beta9
#
DISCID=4111ae16
DTITLE=Linda Ronstadt - Box set [CD-1 of 4)
DYEAR=1999
DGENRE=Pop
TTITLE0=When We Ran
TTITLE1=Ruler Of My Heart
TTITLE2=Cry eTil My Tears Run Dry
TTITLE3=We Will Rock You
TTITLE4=Winter Light
TTITLE5=Anyone Who Had A Heart
TTITLE6=I Just Don't Know What To Do With Myself
TTITLE7=Don't Talk (Put Your Head On My Shoulder)
TTITLE8=Do What You Gotta Do
TTITLE9=Heartbeats Accelerating
TTITLE10=Goodbye My Friend
TTITLE11=Adios
TTITLE12=Cry Like A Rainstorm
TTITLE13=Trouble Again
TTITLE14=Easy For You To Say
TTITLE15=The Moon Is A Harsh Mistress
TTITLE16=Get Closer
TTITLE17=Hurts So Bad
TTITLE18=I Can't Let Go
TTITLE19=Ooh Baby Baby
TTITLE20=Just One Look
TTITLE21=Poor Poor Pitiful Me
EXTD=Boxed Set YEAR: 1999
EXTT0=
EXTT1=
EXTT2=
EXTT3=
EXTT4=
EXTT5=
EXTT6=
EXTT7=
EXTT8=
EXTT9=
EXTT10=
EXTT11=
EXTT12=
EXTT13=
EXTT14=
EXTT15=
EXTT16=
EXTT17=
EXTT18=
EXTT19=
EXTT20=
EXTT21=
PLAYORDER=
